<?xml version="1.0" ?><svg viewBox="0 0 69.45 69.45" xmlns="http://www.w3.org/2000/svg" xmlns:xlink="http://www.w3.org/1999/xlink"><defs><style>.cls-1{fill:url(#linear-gradient);}.cls-2{fill:#fdfdfd;}</style><linearGradient gradientUnits="userSpaceOnUse" id="linear-gradient" x1="48.41" x2="21.04" y1="2.8" y2="66.65"><stop offset="0" stop-color="#6babde"/><stop offset="1" stop-color="#5894c4"/></linearGradient></defs><title/><g data-name="Layer 2" id="Layer_2"><g data-name="Layer 1" id="Layer_1-2"><circle class="cls-1" cx="34.72" cy="34.72" r="34.72"/><g id="Het1PX.tif"><path class="cls-2" d="M55.81,19.27a27.28,27.28,0,0,1-.62,3.23L49.37,50a4.57,4.57,0,0,1-.52,1.52,1.69,1.69,0,0,1-2,.86,4,4,0,0,1-1.49-.72c-2.93-2.18-5.87-4.33-8.79-6.52a.57.57,0,0,0-.9.06c-1.44,1.44-2.91,2.84-4.35,4.26a2.57,2.57,0,0,1-2,.85,1,1,0,0,1-1.06-.8c-.9-2.82-1.82-5.63-2.74-8.45-.31-1-.63-1.91-.92-2.87a.84.84,0,0,0-.64-.63c-2.86-.88-5.72-1.78-8.59-2.68a4.48,4.48,0,0,1-1.09-.45,1,1,0,0,1-.17-1.85,5.15,5.15,0,0,1,1.68-.94l11.71-4.52,25.29-9.75.2-.08C54.59,16.65,55.8,17.48,55.81,19.27ZM29.36,47.57c.16-.08.14-.18.15-.26.19-2.06.39-4.11.56-6.17a1.72,1.72,0,0,1,.6-1.25Q38.9,32.5,47.12,25.06c.35-.31.7-.62,1-.94.14-.14.32-.29.21-.51s-.35-.22-.57-.19a2.75,2.75,0,0,0-1.13.47Q36.53,30.3,26.38,36.68a.62.62,0,0,0-.3.87c.84,2.51,1.65,5,2.47,7.53Q29,46.31,29.36,47.57Z"/></g></g></g></svg>